<svg width="80" height="87" viewBox="0 0 80 87" fill="none" xmlns="http://www.w3.org/2000/svg">
<path fill-rule="evenodd" clip-rule="evenodd" d="M77.226 16.9731C77.4033 17.346 77.5727 17.7243 77.7342 18.1052V18.0973C79.19 21.5254 80 25.3 80 29.2625C80 34.4205 78.6262 39.2611 76.2254 43.4325C75.9951 43.8293 75.7569 44.2208 75.5107 44.607C73.0384 48.4583 69.6661 51.6748 65.6904 53.9602C65.3754 54.1428 65.0577 54.3147 64.7348 54.484C64.6475 54.529 64.5627 54.5739 64.478 54.6189C60.5896 56.608 56.1824 57.7322 51.5104 57.7322H44.938V75.5235C44.938 76.6292 44.7712 77.6952 44.4589 78.6977C44.3874 78.9278 44.3053 79.15 44.2206 79.3722C44.1492 79.56 44.0697 79.7452 43.9877 79.9277C43.6754 80.6208 43.2915 81.2714 42.8442 81.8746C42.841 81.8788 42.8378 81.8835 42.8344 81.8885C42.8294 81.8958 42.824 81.9037 42.8177 81.9116C40.8695 84.5144 37.7593 86.1994 34.2573 86.1994H0V7.73354C0 3.90601 3.10756 0.800598 6.93777 0.800598H49.279C46.7617 0.800598 44.3186 2.09143 42.021 3.70498H6.94305C4.71959 3.70498 2.91169 5.51162 2.91169 7.73354V32.1404C2.38494 32.6297 1.94025 33.0926 1.63054 33.492C2.04877 33.0053 2.47758 32.6033 2.91169 32.2673C3.15521 32.0795 3.39874 31.9129 3.64226 31.7674C3.75343 31.7013 3.86725 31.6378 3.97844 31.5796C3.98373 31.577 3.98968 31.5737 3.99562 31.5703C4.00159 31.567 4.00755 31.5637 4.01283 31.5611C4.13195 31.5002 4.25107 31.4421 4.37018 31.3892H4.37548C4.48665 31.3389 4.59782 31.2939 4.70899 31.2516C4.74075 31.241 4.77253 31.2278 4.80429 31.2172C4.88635 31.1881 4.97106 31.159 5.05311 31.1326C5.07172 31.1264 5.08943 31.1211 5.1073 31.1156C5.11992 31.1118 5.1326 31.1079 5.14575 31.1035C5.1942 31.0878 5.24201 31.0734 5.28949 31.0599C5.33797 31.0462 5.38612 31.0335 5.43428 31.0215C5.44349 31.0196 5.4527 31.0165 5.46191 31.0139C5.46593 31.0127 5.46995 31.0117 5.47398 31.0109C5.59044 30.9818 5.70691 30.9553 5.82073 30.9342C6.8213 30.7411 7.74775 30.8019 8.4889 30.9553C8.57096 30.9739 8.65036 30.9924 8.72977 31.0109C9.46034 31.1723 10.1459 31.3601 10.805 31.5717C11.03 31.6431 11.2497 31.7172 11.4694 31.7939C12.5017 32.1589 13.497 32.5821 14.5452 33.0371C14.5637 33.045 14.5849 33.0556 14.6061 33.0635C14.7517 33.127 14.8973 33.1879 15.0455 33.254C15.1699 33.3079 15.2952 33.3624 15.4215 33.4174C15.7846 33.5753 16.1569 33.7372 16.5437 33.9021C17.1366 34.156 17.7587 34.4126 18.423 34.6744C19.0954 34.931 19.736 35.2114 20.358 35.4891C20.3624 35.4906 20.3668 35.4929 20.3712 35.4951C20.3748 35.4968 20.3783 35.4985 20.3818 35.4997C20.5193 35.5614 20.6567 35.6223 20.7934 35.6829C20.9146 35.7366 21.0353 35.7901 21.1547 35.8436L21.1558 35.844C21.4281 35.9629 21.7004 36.0818 21.9674 36.1927C21.9727 36.1954 21.9787 36.1981 21.9846 36.2007C21.9906 36.2034 21.9965 36.206 22.0018 36.2086C22.0071 36.2113 22.0124 36.2133 22.0177 36.2152C22.023 36.2172 22.0283 36.2192 22.0335 36.2218C22.1324 36.2639 22.2326 36.3048 22.3332 36.3452C22.378 36.3632 22.4228 36.3811 22.4677 36.3991C22.5136 36.4161 22.5585 36.4331 22.6037 36.4508C22.6287 36.4606 22.6539 36.4707 22.6794 36.4811L22.6802 36.4814C22.7646 36.5157 22.8491 36.5499 22.9335 36.5816C22.9785 36.5988 23.0235 36.6153 23.0685 36.6318C23.1135 36.6484 23.1585 36.6649 23.2035 36.6821C23.2366 36.694 23.269 36.7059 23.3015 36.7178C23.3339 36.7297 23.3663 36.7416 23.3994 36.7535C23.5 36.7906 23.6006 36.8249 23.7011 36.8593C23.7567 36.8778 23.8097 36.8964 23.8653 36.9149C23.9738 36.9519 24.0823 36.9863 24.1909 37.0207C24.2358 37.0339 24.2835 37.0498 24.3285 37.063C24.4423 37.1 24.5588 37.1344 24.6726 37.1662C24.6895 37.171 24.707 37.1758 24.7245 37.1806C24.7453 37.1864 24.7663 37.1922 24.7864 37.1979C24.9082 37.2323 25.0299 37.264 25.1517 37.2958C25.1782 37.3011 25.2046 37.309 25.2311 37.3143C26.724 37.6793 28.201 37.7719 29.5748 37.3037C29.6992 37.264 29.8236 37.2191 29.9454 37.1662H29.9481C33.9768 35.4548 35.1547 32.4657 36.3167 28.4213C36.3387 28.347 36.3596 28.2716 36.3808 28.1952C36.3928 28.1519 36.4049 28.1082 36.4173 28.0642C36.4233 28.0422 36.4293 28.0186 36.4353 27.9959C36.4373 27.9886 36.4392 27.9813 36.4411 27.9743C36.4755 27.8526 36.5073 27.7309 36.5417 27.6039V27.6013C36.5788 27.4717 36.6132 27.3394 36.6476 27.2045C36.6555 27.1728 36.6635 27.1437 36.6714 27.1119C36.7058 26.985 36.7376 26.8554 36.772 26.7257C36.7725 26.7241 36.7731 26.7226 36.7736 26.7211C36.7756 26.7155 36.7773 26.7109 36.7773 26.7046C36.8117 26.5644 36.8488 26.4242 36.8832 26.284C36.8871 26.2681 36.8911 26.2516 36.8951 26.2351C36.8991 26.2185 36.903 26.202 36.907 26.1861C36.9211 26.1273 36.9358 26.0685 36.9505 26.0095C36.9688 25.9357 36.9873 25.8616 37.0049 25.7867C37.0076 25.7761 37.0129 25.7682 37.0129 25.7576C37.0498 25.6154 37.084 25.4706 37.1183 25.3257L37.1187 25.3238C37.1267 25.2894 37.1346 25.2577 37.1426 25.2259C37.1585 25.1584 37.1744 25.0915 37.1903 25.0246C37.2062 24.9579 37.222 24.8912 37.2379 24.8239C37.2405 24.8133 37.2432 24.8001 37.2458 24.7868C37.2802 24.6387 37.3146 24.4932 37.349 24.3451C37.3535 24.3287 37.3571 24.3123 37.3609 24.296C37.3638 24.2832 37.3667 24.2705 37.3702 24.2578C37.402 24.1229 37.4311 23.988 37.4629 23.8531L37.4708 23.8134C37.5052 23.6627 37.537 23.5145 37.5714 23.3664C37.5741 23.3571 37.576 23.3478 37.578 23.3385C37.58 23.3293 37.582 23.3201 37.5846 23.3109C37.6076 23.2111 37.6307 23.1114 37.6527 23.0127C37.661 22.9753 37.6692 22.938 37.6773 22.9009L37.6852 22.8612C37.717 22.7157 37.7487 22.5729 37.7805 22.4327C37.7831 22.4168 37.7884 22.3983 37.7911 22.3824L37.8194 22.2537C37.8391 22.1646 37.8588 22.0758 37.8784 21.9883C37.8811 21.9803 37.8837 21.9724 37.8837 21.9645C37.9128 21.8269 37.942 21.692 37.9711 21.5598C37.9737 21.5495 37.9762 21.5368 37.9788 21.524L37.979 21.5227C38.0055 21.3958 38.032 21.2714 38.0584 21.1498V21.1392C38.212 20.4144 38.3364 19.806 38.4158 19.404C38.5031 19.031 38.5958 18.6342 38.6911 18.2269C38.7092 18.1504 38.7273 18.0732 38.7456 17.9954C38.7753 17.8685 38.8055 17.74 38.8366 17.6105V17.6053C38.969 17.0498 39.1146 16.4678 39.2681 15.8753C39.5593 14.7511 39.8928 13.5793 40.274 12.4234C40.409 12.0134 40.5493 11.6034 40.6975 11.2013C40.9092 10.6273 41.1342 10.0639 41.3751 9.51902C41.6345 8.92386 41.9125 8.35251 42.2116 7.8129C42.2907 7.66793 42.3885 7.4727 42.5049 7.24022C42.5988 7.05276 42.7049 6.84108 42.823 6.612C42.8733 6.51413 42.9236 6.41626 42.9792 6.3131C42.9871 6.29458 42.9951 6.27871 43.0057 6.2602C43.0269 6.22127 43.0487 6.18182 43.0708 6.14183C43.0982 6.09216 43.126 6.04168 43.1539 5.99039C43.1698 5.96393 43.183 5.93749 43.1989 5.91104C43.2465 5.82374 43.2968 5.73646 43.3498 5.64652C43.3683 5.61742 43.3842 5.58568 43.4027 5.55659C43.453 5.46665 43.5086 5.37671 43.5642 5.28678C43.5734 5.27093 43.5827 5.25575 43.5919 5.24056C43.6012 5.22533 43.6105 5.2101 43.6198 5.19419C43.678 5.09897 43.7389 5.00375 43.8024 4.90852C43.8183 4.88207 43.8342 4.85561 43.8527 4.82917C43.8816 4.78692 43.9104 4.74426 43.9395 4.70137C43.985 4.63416 44.0308 4.56634 44.0777 4.49853C44.0883 4.48794 44.0962 4.47472 44.1042 4.46149C44.2815 4.2102 44.4694 3.95626 44.6733 3.70762C44.8559 3.48543 45.0465 3.26324 45.2503 3.05163C46.2588 1.9962 47.7305 0.977827 49.279 0.800598H52.1219C62.9878 0.800598 72.6308 7.38174 77.1995 16.9175C77.204 16.9253 77.2079 16.9331 77.2117 16.9409C77.2168 16.9516 77.2214 16.9624 77.226 16.9731ZM5.81543 29.6883C6.74718 28.9609 7.66303 28.2758 8.40155 27.7309C8.44003 27.7027 8.47819 27.6749 8.51627 27.6472L8.56301 27.6132C8.59834 27.5875 8.63368 27.5618 8.66919 27.5359L8.72447 27.4955V9.51637H34.4665C35.5914 8.66199 36.7429 7.77586 37.9314 6.84212C38.0293 6.76541 38.1273 6.6887 38.2252 6.60934H6.93775C6.31837 6.60934 5.81543 7.11192 5.81543 7.73089V29.6883ZM30.5515 12.4234C29.1804 13.4206 27.8278 14.3834 26.4752 15.3278V15.3304H14.5373V23.4061C13.5658 24.0673 12.597 24.7339 11.6309 25.4137V12.4234H30.5515ZM17.4463 21.4486V18.2348H22.2453C20.9222 19.1285 19.62 19.9976 18.3291 20.8593L18.2392 20.9193C17.9745 21.096 17.7102 21.2724 17.4463 21.4486Z" fill="#FDA174"/>
</svg>
